<svg width="45" height="36" viewBox="0 0 45 36" fill="none" xmlns="http://www.w3.org/2000/svg">
<path d="M43.1358 0.919922H37.9603C36.8347 0.919922 35.7643 1.44629 35.1022 2.34863L17.7549 25.7666L9.8979 15.1533C9.23579 14.2617 8.17642 13.7246 7.0398 13.7246H1.86431C1.14703 13.7246 0.727692 14.5195 1.14703 15.0889L14.8968 33.6514C15.2217 34.0927 15.6499 34.4523 16.1459 34.7004C16.642 34.9484 17.1917 35.0779 17.7494 35.0779C18.3071 35.0779 18.8568 34.9484 19.3529 34.7004C19.849 34.4523 20.2772 34.0927 20.602 33.6514L43.842 2.28418C44.2724 1.71485 43.8531 0.919922 43.1358 0.919922Z" fill="#09BCB1"/>
</svg>
