<svg width="105" height="84" viewBox="0 0 105 84" fill="none" xmlns="http://www.w3.org/2000/svg">
<path d="M94.875 0.795898H10.125C4.94587 0.795898 0.708374 4.9209 0.708374 9.96257V28.2501H10.125V9.8709H94.875V74.1751H10.125V55.7501H0.708374V74.1292C0.708374 79.1709 4.94587 83.2042 10.125 83.2042H94.875C100.054 83.2042 104.292 79.1709 104.292 74.1292V9.96257C104.292 7.53141 103.3 5.19984 101.534 3.48075C99.7677 1.76167 97.3725 0.795898 94.875 0.795898ZM47.7917 60.3334L66.625 42.0001L47.7917 23.6667V37.4167H0.708374V46.5834H47.7917V60.3334ZM104.292 0.795898H0.708374V28.2501H10.125V9.8709H94.875V74.1751H10.125V55.7501H0.708374V83.2042H104.292V0.795898ZM47.7917 60.3334L66.625 42.0001L47.7917 23.6667V37.4167H0.708374V46.5834H47.7917V60.3334Z" fill="#D71717"/>
</svg>
