<svg width="23" height="24" viewBox="0 0 23 24" fill="none" xmlns="http://www.w3.org/2000/svg">
<path d="M11.4976 5.84284C8.23237 5.84284 5.59714 8.5927 5.59714 12C5.59714 15.4073 8.23237 18.1572 11.4976 18.1572C14.7629 18.1572 17.3981 15.4073 17.3981 12C17.3981 8.5927 14.7629 5.84284 11.4976 5.84284ZM11.4976 16.0017C9.386 16.0017 7.66275 14.2035 7.66275 12C7.66275 9.79651 9.386 7.9983 11.4976 7.9983C13.6093 7.9983 15.3325 9.79651 15.3325 12C15.3325 14.2035 13.6093 16.0017 11.4976 16.0017ZM17.6398 4.1557C16.8774 4.1557 16.2618 4.79813 16.2618 5.59367C16.2618 6.38921 16.8774 7.03164 17.6398 7.03164C18.4022 7.03164 19.0178 6.39221 19.0178 5.59367C19.0181 5.40477 18.9826 5.21767 18.9134 5.0431C18.8442 4.86853 18.7427 4.70992 18.6147 4.57634C18.4867 4.44277 18.3347 4.33686 18.1674 4.26468C18.0001 4.1925 17.8208 4.15546 17.6398 4.1557ZM22.9994 12C22.9994 10.3429 23.0138 8.70077 22.9247 7.04665C22.8355 5.12536 22.4154 3.4202 21.0691 2.01525C19.7198 0.607302 18.0886 0.172008 16.2474 0.0789456C14.6593 -0.0141173 13.0857 0.000892936 11.5005 0.000892936C9.91247 0.000892936 8.33882 -0.0141173 6.75365 0.0789456C4.91244 0.172008 3.27837 0.610305 1.93198 2.01525C0.58272 3.42321 0.165571 5.12536 0.0763872 7.04665C-0.0127964 8.70377 0.00158814 10.3459 0.00158814 12C0.00158814 13.6541 -0.0127964 15.2992 0.0763872 16.9533C0.165571 18.8746 0.585597 20.5798 1.93198 21.9847C3.28124 23.3927 4.91244 23.828 6.75365 23.9211C8.34169 24.0141 9.91535 23.9991 11.5005 23.9991C13.0886 23.9991 14.6622 24.0141 16.2474 23.9211C18.0886 23.828 19.7227 23.3897 21.0691 21.9847C22.4183 20.5768 22.8355 18.8746 22.9247 16.9533C23.0167 15.2992 22.9994 13.6571 22.9994 12ZM20.4678 19.0788C20.2578 19.6252 20.0046 20.0334 19.599 20.4537C19.1933 20.877 18.8049 21.1412 18.2813 21.3603C16.7681 21.9877 13.1749 21.8467 11.4976 21.8467C9.82041 21.8467 6.2243 21.9877 4.71106 21.3633C4.18746 21.1442 3.79621 20.88 3.39344 20.4567C2.9878 20.0334 2.73463 19.6282 2.52462 19.0818C1.92623 17.4997 2.06144 13.7502 2.06144 12C2.06144 10.2498 1.92623 6.49728 2.52462 4.91822C2.73463 4.37185 2.9878 3.96357 3.39344 3.54329C3.79908 3.123 4.18746 2.85582 4.71106 2.63667C6.2243 2.01225 9.82041 2.15335 11.4976 2.15335C13.1749 2.15335 16.771 2.01225 18.2842 2.63667C18.8078 2.85582 19.1991 3.12 19.6018 3.54329C20.0075 3.96657 20.2607 4.37185 20.4707 4.91822C21.0691 6.49728 20.9338 10.2498 20.9338 12C20.9338 13.7502 21.0691 17.4997 20.4678 19.0788Z" fill="white"/>
</svg>
