<svg width="51" height="48" viewBox="0 0 51 48" fill="none" xmlns="http://www.w3.org/2000/svg">
<path d="M11.1562 0C11.5789 0 11.9843 0.158035 12.2832 0.43934C12.5821 0.720644 12.75 1.10218 12.75 1.5V3H38.25V1.5C38.25 1.10218 38.4179 0.720644 38.7168 0.43934C39.0157 0.158035 39.4211 0 39.8438 0C40.2664 0 40.6718 0.158035 40.9707 0.43934C41.2696 0.720644 41.4375 1.10218 41.4375 1.5V3H44.625C46.3158 3 47.9373 3.63214 49.1328 4.75736C50.3284 5.88258 51 7.4087 51 9V42C51 43.5913 50.3284 45.1174 49.1328 46.2426C47.9373 47.3679 46.3158 48 44.625 48H6.375C4.68424 48 3.06274 47.3679 1.86719 46.2426C0.67165 45.1174 0 43.5913 0 42V9C0 7.4087 0.67165 5.88258 1.86719 4.75736C3.06274 3.63214 4.68424 3 6.375 3H9.5625V1.5C9.5625 1.10218 9.73041 0.720644 10.0293 0.43934C10.3282 0.158035 10.7336 0 11.1562 0V0ZM42.8846 9H8.11219C7.15594 9 6.375 9.672 6.375 10.5V13.5C6.375 14.328 7.15275 15 8.11219 15H42.8878C43.8441 15 44.625 14.328 44.625 13.5V10.5C44.625 9.672 43.8473 9 42.8846 9ZM34.5971 26.562C34.8964 26.2803 35.0645 25.8983 35.0645 25.5C35.0645 25.1017 34.8964 24.7197 34.5971 24.438C34.2979 24.1563 33.892 23.9981 33.4688 23.9981C33.0455 23.9981 32.6396 24.1563 32.3404 24.438L23.9062 32.379L20.2534 28.938C20.1052 28.7985 19.9293 28.6879 19.7357 28.6124C19.5421 28.537 19.3346 28.4981 19.125 28.4981C18.9154 28.4981 18.7079 28.537 18.5143 28.6124C18.3207 28.6879 18.1448 28.7985 17.9966 28.938C17.8484 29.0775 17.7309 29.243 17.6507 29.4252C17.5705 29.6075 17.5292 29.8028 17.5292 30C17.5292 30.1972 17.5705 30.3925 17.6507 30.5748C17.7309 30.757 17.8484 30.9225 17.9966 31.062L22.7779 35.562C22.9259 35.7017 23.1018 35.8125 23.2954 35.8881C23.489 35.9638 23.6966 36.0027 23.9062 36.0027C24.1159 36.0027 24.3235 35.9638 24.5171 35.8881C24.7107 35.8125 24.8866 35.7017 25.0346 35.562L34.5971 26.562Z" fill="black"/>
</svg>
