<svg width="61" height="55" viewBox="0 0 61 55" fill="none" xmlns="http://www.w3.org/2000/svg">
<path d="M16.8141 15.7145C17.1252 15.7145 17.4236 15.5489 17.6436 15.2542C17.8636 14.9595 17.9871 14.5598 17.9871 14.1431V4.71449C17.9871 4.29773 17.8636 3.89803 17.6436 3.60333C17.4236 3.30863 17.1252 3.14307 16.8141 3.14307C16.5029 3.14307 16.2046 3.30863 15.9846 3.60333C15.7646 3.89803 15.641 4.29773 15.641 4.71449V14.1431C15.641 14.5598 15.7646 14.9595 15.9846 15.2542C16.2046 15.5489 16.5029 15.7145 16.8141 15.7145Z" fill="black"/>
<path d="M50.442 20.4289C47.1364 20.4289 43.9662 19.1872 41.6288 16.977C39.2914 14.7667 37.9783 11.769 37.9783 8.64325H20.8614V13.3575C20.8614 14.2744 20.4762 15.1537 19.7906 15.8021C19.1049 16.4504 18.175 16.8146 17.2054 16.8146C16.2357 16.8146 15.3058 16.4504 14.6202 15.8021C13.9345 15.1537 13.5493 14.2744 13.5493 13.3575V8.64325H6.902C6.50653 8.63899 6.11416 8.70977 5.74812 8.8514C5.38207 8.99303 5.04978 9.20263 4.77089 9.46781C4.49201 9.73299 4.27219 10.0484 4.12444 10.3953C3.97669 10.7422 3.90401 11.1136 3.91071 11.4875V46.6559C3.9041 47.0233 3.97409 47.3882 4.11668 47.73C4.25927 48.0718 4.47166 48.3836 4.74172 48.6477C5.01179 48.9119 5.33423 49.1231 5.69064 49.2694C6.04705 49.4156 6.43044 49.4941 6.81891 49.5002H54.1811C54.5696 49.4941 54.953 49.4156 55.3094 49.2694C55.6658 49.1231 55.9883 48.9119 56.2583 48.6477C56.5284 48.3836 56.7408 48.0718 56.8834 47.73C57.0259 47.3882 57.0959 47.0233 57.0893 46.6559V18.6061C55.1019 19.7989 52.796 20.4312 50.442 20.4289ZM17.2054 40.0717H13.8817V36.9288H17.2054V40.0717ZM17.2054 32.2146H13.8817V29.0717H17.2054V32.2146ZM17.2054 24.3575H13.8817V21.2146H17.2054V24.3575ZM27.1764 40.0717H23.8527V36.9288H27.1764V40.0717ZM27.1764 32.2146H23.8527V29.0717H27.1764V32.2146ZM27.1764 24.3575H23.8527V21.2146H27.1764V24.3575ZM37.1474 40.0717H33.8237V36.9288H37.1474V40.0717ZM37.1474 32.2146H33.8237V29.0717H37.1474V32.2146ZM37.1474 24.3575H33.8237V21.2146H37.1474V24.3575ZM47.1183 40.0717H43.7947V36.9288H47.1183V40.0717ZM47.1183 32.2146H43.7947V29.0717H47.1183V32.2146ZM47.1183 24.3575H43.7947V21.2146H47.1183V24.3575Z" fill="black"/>
<path d="M51.2244 16.4999C55.7595 16.4999 59.4359 13.158 59.4359 9.03557C59.4359 4.91316 55.7595 1.57129 51.2244 1.57129C46.6892 1.57129 43.0128 4.91316 43.0128 9.03557C43.0128 13.158 46.6892 16.4999 51.2244 16.4999Z" fill="black"/>
</svg>
