<svg width="95" height="94" viewBox="0 0 95 94" fill="none" xmlns="http://www.w3.org/2000/svg">
<path d="M64.7811 26.375C64.7811 25.9023 64.3838 25.5156 63.8983 25.5156H57.8841C57.5531 25.5156 57.2441 25.6982 57.1006 25.9883L47.7538 44.1211H47.3897L38.0429 25.9883C37.9697 25.8469 37.8578 25.7279 37.7196 25.6445C37.5813 25.5611 37.4221 25.5165 37.2594 25.5156H31.1128C30.9694 25.5156 30.8259 25.5479 30.6935 25.623C30.2631 25.8486 30.1086 26.375 30.3404 26.7832L41.8059 47.3652H35.5159C35.0303 47.3652 34.633 47.752 34.633 48.2246V51.1357C34.633 51.6084 35.0303 51.9951 35.5159 51.9951H43.9026V56.1846H35.5159C35.0303 56.1846 34.633 56.5713 34.633 57.0439V59.9551C34.633 60.4277 35.0303 60.8144 35.5159 60.8144H43.9026V67.625C43.9026 68.0977 44.2998 68.4844 44.7854 68.4844H50.2919C50.7775 68.4844 51.1747 68.0977 51.1747 67.625V60.8037H59.5946C60.0801 60.8037 60.4774 60.417 60.4774 59.9443V57.0332C60.4774 56.5606 60.0801 56.1738 59.5946 56.1738H51.1747V51.9844H59.5946C60.0801 51.9844 60.4774 51.5977 60.4774 51.125V48.2139C60.4774 47.7412 60.0801 47.3545 59.5946 47.3545H53.2383L64.6818 26.7725C64.7369 26.6543 64.7811 26.5146 64.7811 26.375ZM8.42454 46.1621C8.63183 36.3718 12.7251 27.0398 19.8459 20.123C23.4324 16.6318 27.6036 13.8818 32.2494 11.9697C37.0608 9.99316 42.1701 8.9834 47.4338 8.9834C52.7086 8.9834 57.8179 9.98242 62.6182 11.9697C67.264 13.8818 71.4353 16.6318 75.0217 20.123C76.1252 21.1973 77.1515 22.3252 78.1005 23.4961L72.5829 27.6963C72.4515 27.7953 72.3514 27.9284 72.2942 28.0802C72.237 28.2321 72.225 28.3966 72.2596 28.5549C72.2942 28.7131 72.374 28.8586 72.4897 28.9747C72.6055 29.0907 72.7525 29.1726 72.914 29.2109L90.2171 33.3252C90.7689 33.4541 91.3096 33.0459 91.3096 32.498L91.3979 15.1494C91.3979 14.4297 90.5482 14.0215 89.9743 14.4727L84.6995 18.4902C76.048 7.71582 62.5741 0.808594 47.4449 0.808594C21.5674 0.808594 0.523372 21.0146 0.0488599 46.1191C0.0459146 46.2338 0.0665727 46.3479 0.109618 46.4546C0.152663 46.5614 0.217223 46.6587 0.299495 46.7407C0.381767 46.8228 0.480086 46.8881 0.588658 46.9326C0.69723 46.9771 0.813859 47 0.931672 47H7.55277C8.02728 47 8.41351 46.624 8.42454 46.1621ZM94.0684 47H87.4473C86.9728 47 86.5755 47.376 86.5645 47.8379C86.3572 57.6282 82.264 66.9602 75.1431 73.877C71.5896 77.3505 67.3772 80.1195 62.7396 82.0303C57.9283 84.0068 52.819 85.0166 47.5552 85.0166C42.2914 85.0166 37.1711 84.0176 32.3708 82.0303C27.7332 80.1195 23.5208 77.3505 19.9673 73.877C18.8638 72.8027 17.8375 71.6748 16.8885 70.5039L22.3951 66.3037C22.5265 66.2047 22.6266 66.0716 22.6838 65.9198C22.741 65.7679 22.753 65.6034 22.7184 65.4451C22.6838 65.2869 22.604 65.1414 22.4883 65.0253C22.3725 64.9093 22.2254 64.8274 22.064 64.7891L4.76087 60.6748C4.20911 60.5459 3.66839 60.9541 3.66839 61.502L3.58011 78.8721C3.58011 79.5918 4.42982 80 5.00365 79.5488L10.2785 75.5312C18.9521 86.2842 32.426 93.1914 47.5552 93.1914C73.4326 93.1914 94.4767 72.9854 94.9512 47.8809C94.9541 47.7662 94.9335 47.6521 94.8904 47.5454C94.8474 47.4386 94.7828 47.3413 94.7006 47.2593C94.6183 47.1772 94.52 47.1119 94.4114 47.0674C94.3028 47.0229 94.1862 47 94.0684 47Z" fill="#E1CFA0"/>
</svg>
