<svg width="56" height="42" viewBox="0 0 56 42" fill="none" xmlns="http://www.w3.org/2000/svg">
<path fill-rule="evenodd" clip-rule="evenodd" d="M36.853 5.25131e-05C36.6537 0.00149502 36.4571 0.0379923 36.2762 0.107103L19.133 6.66902L1.98968 0.107564C1.77636 0.0259379 1.54153 -0.0100916 1.30686 0.00280194C1.07218 0.0156955 0.84523 0.0770968 0.646956 0.181337C0.448682 0.285577 0.285476 0.429296 0.172404 0.599226C0.0593321 0.769156 3.94604e-05 0.959819 0 1.15361L0 33.5872C4.47713e-05 33.807 0.0763416 34.0223 0.219904 34.2076C0.363466 34.3929 0.568314 34.5406 0.81032 34.6332L18.5433 41.4208C18.7321 41.4931 18.9382 41.5298 19.1464 41.5283C19.3461 41.527 19.5432 41.4905 19.7243 41.4212L36.8676 34.8593L54.0109 41.4208C54.2242 41.5023 54.4589 41.5382 54.6935 41.5253C54.9281 41.5123 55.155 41.4509 55.3532 41.3467C55.5514 41.2425 55.7145 41.0988 55.8276 40.9289C55.9406 40.759 55.9999 40.5684 56 40.3747V20.7028L53.2 23.0191V38.5668L37.7003 32.6343L37.669 28.0542H35.989L36.0203 32.6385L19.9618 38.786L19.8867 27.889C19.2171 27.6944 18.6309 27.343 18.2 26.878L18.2818 38.7768L2.8 32.8503V2.96148L18.074 8.80773L18.083 10.0776C18.4953 9.58242 19.0775 9.19989 19.7551 8.97892V8.97522L35.8137 2.82859L35.8551 8.77404H37.5351L37.4926 2.66524L53.2 8.67714V13.8082L56 16.1245V7.94163C56.0001 7.72169 55.9238 7.50632 55.7802 7.32091C55.6367 7.13549 55.4318 6.98776 55.1897 6.89512L37.4567 0.107564C37.2677 0.0351448 37.0615 -0.00158615 36.853 5.25131e-05Z" fill="black"/>
<path d="M20.6482 10.1514C20.211 10.1514 19.7918 10.2978 19.4827 10.5584C19.1736 10.819 19 11.1724 19 11.5409V25.3731C19 25.7417 19.1736 26.0951 19.4827 26.3557C19.7918 26.6163 20.211 26.7627 20.6482 26.7627H43.7242C44.1614 26.7627 44.5806 26.6163 44.8897 26.3557C45.1988 26.0951 45.3724 25.7417 45.3724 25.3731V11.5409C45.3724 11.1724 45.1988 10.819 44.8897 10.5584C44.5806 10.2978 44.1614 10.1514 43.7242 10.1514H20.6482ZM24.8241 12.9305H39.5982L32.2635 18.0098L24.8241 12.9305ZM48.2547 11.901V25.0126L56 18.4568L48.2547 11.901ZM22.2963 14.1276L31.5708 20.4595C31.9928 20.7474 32.5529 20.7455 32.9732 20.4547L42.0761 14.1515V23.9836H22.2963V14.1276Z" fill="black"/>
</svg>
