<svg width="37" height="17" viewBox="0 0 37 17" fill="none" xmlns="http://www.w3.org/2000/svg">
<path d="M1.64817 0.151367C1.21105 0.151367 0.791829 0.297768 0.482737 0.558363C0.173645 0.818958 0 1.1724 0 1.54094V15.3731C0 15.7417 0.173645 16.0951 0.482737 16.3557C0.791829 16.6163 1.21105 16.7627 1.64817 16.7627H24.7242C25.1614 16.7627 25.5806 16.6163 25.8897 16.3557C26.1988 16.0951 26.3724 15.7417 26.3724 15.3731V1.54094C26.3724 1.1724 26.1988 0.818958 25.8897 0.558363C25.5806 0.297768 25.1614 0.151367 24.7242 0.151367H1.64817ZM5.8241 2.93051H20.5982L13.2635 8.00984L5.8241 2.93051ZM29.2547 1.90098V15.0126L37 8.45679L29.2547 1.90098ZM3.29634 4.12764L12.5708 10.4595C12.9928 10.7474 13.5529 10.7455 13.9732 10.4547L23.0761 4.15151V13.9836H3.29634V4.12764Z" fill="black"/>
</svg>
