<svg width="17" height="16" viewBox="0 0 17 16" fill="none" xmlns="http://www.w3.org/2000/svg">
<path d="M16.4001 3.34001L13.6601 0.60001C13.3024 0.264106 12.8338 0.0713693 12.3434 0.0584625C11.8529 0.0455557 11.3748 0.21338 11.0001 0.530011L2.00005 9.53001C1.67682 9.85598 1.47556 10.2832 1.43005 10.74L1.00005 14.91C0.986582 15.0565 1.00559 15.2041 1.05571 15.3424C1.10584 15.4807 1.18585 15.6062 1.29005 15.71C1.38349 15.8027 1.49431 15.876 1.61615 15.9258C1.73798 15.9755 1.86845 16.0008 2.00005 16H2.09005L6.26005 15.62C6.71685 15.5745 7.14409 15.3732 7.47005 15.05L16.4701 6.05001C16.8194 5.68098 17.0082 5.18852 16.995 4.68055C16.9819 4.17257 16.768 3.69052 16.4001 3.34001ZM13.0001 6.68001L10.3201 4.00001L12.2701 2.00001L15.0001 4.73001L13.0001 6.68001Z" fill="white"/>
</svg>
