<svg width="48" height="50" viewBox="0 0 48 50" fill="none" xmlns="http://www.w3.org/2000/svg">
<path d="M46.783 11.883C46.095 11.341 44.25 10.906 42.869 10.582L41 10.332V5.814L41.957 5.799C42.854 6.254 44.146 7 44.213 8H47.817C47.75 6 46.231 4.738 44.879 3.736C43.982 3.071 43 2.716 41 2.501V0H39V2.424C37 2.616 36.354 3.114 35.451 3.927C34.27 4.99 33.744 6.324 33.744 7.93C33.744 9.69 34.247 10.983 35.456 11.811C36.132 12.28 37 12.716 39 13.12V18.015C38 17.838 37.998 17.883 37.645 17.464C37.305 17.058 37.212 16 37.096 16H33.52C33.52 18 34.061 18.958 35.415 20.025C36.391 20.794 37 20.93 39 21.132V23H41V21.164C43 20.971 44.699 20.462 45.676 19.628C46.944 18.545 47.981 17.184 47.981 15.546C47.98 13.948 47.852 12.728 46.783 11.883ZM38.018 9.097C37.436 8.78 37.212 8.3 37.212 7.659C37.212 6.961 37.405 6.415 37.995 6.025C38.306 5.82 38 5.671 39 5.572V9.512C38 9.36 38.238 9.222 38.018 9.097ZM42.361 17.917C42.193 17.975 41 18.021 41 18.062V13.895C43 14.067 42.846 14.252 43.178 14.453C43.699 14.777 43.961 15.239 43.961 15.83C43.961 16.846 43.426 17.543 42.361 17.917ZM37.52 30H36.967L30.823 18.875C30.558 18.394 29.89 18 29.34 18H10.699C10.149 18 9.481 18.394 9.216 18.875L3.072 30H2.52C1.419 30 0 30.9 0 32V42C0 43.1 1.419 44 2.52 44H4V47C4 48.65 5.87 50 7.52 50H8.52C10.17 50 11 48.65 11 47V44H28V47C28 48.65 29.869 50 31.52 50H32.52C34.17 50 35 48.65 35 47V44H37.52C38.62 44 39 43.1 39 42V32C39 30.9 38.619 30 37.52 30ZM6.02 38C5.35696 38 4.72107 37.7366 4.25223 37.2678C3.78339 36.7989 3.52 36.163 3.52 35.5C3.52 34.837 3.78339 34.2011 4.25223 33.7322C4.72107 33.2634 5.35696 33 6.02 33C6.68304 33 7.31893 33.2634 7.78777 33.7322C8.25661 34.2011 8.52 34.837 8.52 35.5C8.52 36.163 8.25661 36.7989 7.78777 37.2678C7.31893 37.7366 6.68304 38 6.02 38ZM8.02 30L12.073 21.895C12.318 21.402 12.97 21 13.52 21H26.52C27.07 21 27.721 21.402 27.967 21.895L32.02 30H8.02ZM34.02 38C33.357 38 32.7211 37.7366 32.2522 37.2678C31.7834 36.7989 31.52 36.163 31.52 35.5C31.52 34.837 31.7834 34.2011 32.2522 33.7322C32.7211 33.2634 33.357 33 34.02 33C34.683 33 35.3189 33.2634 35.7878 33.7322C36.2566 34.2011 36.52 34.837 36.52 35.5C36.52 36.163 36.2566 36.7989 35.7878 37.2678C35.3189 37.7366 34.683 38 34.02 38Z" fill="black"/>
</svg>
