<svg width="99" height="82" viewBox="0 0 99 82" fill="none" xmlns="http://www.w3.org/2000/svg">
<path d="M34.9336 61.625H64.0664C64.552 61.625 64.9493 61.2383 64.9493 60.7656V51.7422C64.9493 51.2695 64.552 50.8828 64.0664 50.8828H59.6524C59.1668 50.8828 58.7696 51.2695 58.7696 51.7422V55.6094H40.2305V51.7422C40.2305 51.2695 39.8332 50.8828 39.3477 50.8828H34.9336C34.4481 50.8828 34.0508 51.2695 34.0508 51.7422V60.7656C34.0508 61.2383 34.4481 61.625 34.9336 61.625ZM72.4532 48.4121C72.4532 49.5517 72.9182 50.6446 73.746 51.4505C74.5738 52.2563 75.6965 52.709 76.8672 52.709C78.0379 52.709 79.1606 52.2563 79.9884 51.4505C80.8162 50.6446 81.2813 49.5517 81.2813 48.4121C81.2813 47.2725 80.8162 46.1796 79.9884 45.3738C79.1606 44.5679 78.0379 44.1152 76.8672 44.1152C75.6965 44.1152 74.5738 44.5679 73.746 45.3738C72.9182 46.1796 72.4532 47.2725 72.4532 48.4121ZM98.8272 30.4082L96.2119 25.9609C96.0943 25.7649 95.9018 25.6221 95.6764 25.5637C95.4511 25.5054 95.2111 25.5362 95.009 25.6494L89.4142 28.8291L80.7737 5.60449C80.3175 4.21869 79.4207 3.00987 78.2127 2.15258C77.0048 1.29528 75.5482 0.833869 74.0533 0.834963H26.2379C22.4087 0.834963 19.0099 3.24121 17.8291 6.79688L9.5969 28.8398L3.99104 25.6602C3.78893 25.5469 3.549 25.5161 3.32363 25.5745C3.09827 25.6328 2.90578 25.7756 2.78821 25.9717L0.172878 30.4082C-0.069895 30.8164 0.0735622 31.332 0.492898 31.5684L7.15813 35.3496L5.55804 39.6465C5.42561 39.9902 5.3594 40.3555 5.3594 40.7207V78.125C5.3594 79.8115 6.66155 81.1758 8.26165 81.1758H15.7214C17.0787 81.1758 18.2595 80.1768 18.5464 78.7803L19.3961 74.7305H79.6039L80.4537 78.7803C80.7516 80.1768 81.9213 81.1758 83.2786 81.1758H90.7384C92.3385 81.1758 93.6407 79.8115 93.6407 78.125V40.7207C93.6407 40.3555 93.5745 39.9902 93.442 39.6465L91.8419 35.3496L98.4961 31.5684C98.6965 31.4558 98.8434 31.2711 98.9053 31.0542C98.9672 30.8372 98.9391 30.6053 98.8272 30.4082ZM85.6954 41.5371V66.9961H13.3047V41.5371L15.0262 36.918H83.9739L85.6954 41.5371ZM25.2999 9.42871L25.3551 9.28907L25.3992 9.14942C25.5206 8.79492 25.8517 8.5586 26.2379 8.5586H73.4243L81.7448 30.9024H17.2774L25.2999 9.42871ZM17.7188 48.4121C17.7188 49.5517 18.1838 50.6446 19.0116 51.4505C19.8394 52.2563 20.9622 52.709 22.1328 52.709C23.3035 52.709 24.4263 52.2563 25.2541 51.4505C26.0819 50.6446 26.5469 49.5517 26.5469 48.4121C26.5469 47.2725 26.0819 46.1796 25.2541 45.3738C24.4263 44.5679 23.3035 44.1152 22.1328 44.1152C20.9622 44.1152 19.8394 44.5679 19.0116 45.3738C18.1838 46.1796 17.7188 47.2725 17.7188 48.4121Z" fill="#2407D3"/>
</svg>
