<svg width="72" height="36" viewBox="0 0 72 36" fill="none" xmlns="http://www.w3.org/2000/svg">
<path d="M53.6647 35.28C57.3574 35.28 60.351 32.9108 60.351 29.9881C60.351 27.0654 57.3574 24.6962 53.6647 24.6962C49.972 24.6962 46.9785 27.0654 46.9785 29.9881C46.9785 32.9108 49.972 35.28 53.6647 35.28Z" fill="black"/>
<path d="M62.8505 14.1671H55.7185C53.044 4.64151 41.4546 -1.70891 29.4194 0.407895C20.5044 1.8191 13.3724 7.11112 11.5894 14.1671H8.46921C4.01173 14.1671 0 17.3423 0 20.8704V25.4568C0 27.9264 2.67449 30.0432 5.79472 30.0432H7.13197C7.13197 25.4568 12.0352 21.576 17.8299 21.576C23.6246 21.576 28.5279 25.4568 28.5279 30.0432H42.7918C42.7918 25.4568 47.695 21.576 53.4898 21.576C59.2845 21.576 64.1877 25.4568 64.1877 30.0432H65.525C68.6452 30.0432 71.3197 27.9264 71.3197 25.4568V21.2232C71.3197 17.3424 67.308 14.1671 62.8505 14.1671ZM18.7214 14.1671C20.9502 7.46392 29.8651 3.93591 37.8886 5.69991C42.7918 6.75831 46.8035 9.93353 48.5865 14.1671H18.7214ZM17.8299 24.7512C14.2639 24.7512 11.1437 27.2208 11.1437 30.0432C11.1437 32.8656 14.2639 35.3352 17.8299 35.3352C21.3959 35.3352 24.5161 32.8656 24.5161 30.0432C24.5161 27.2208 21.3959 24.7512 17.8299 24.7512Z" fill="black"/>
</svg>
