<svg width="99" height="97" viewBox="0 0 99 97" fill="none" xmlns="http://www.w3.org/2000/svg">
<path d="M24.75 3.03125C24.75 2.22731 24.4241 1.4563 23.8439 0.887833C23.2637 0.319363 22.4768 0 21.6562 0C20.8357 0 20.0488 0.319363 19.4686 0.887833C18.8884 1.4563 18.5625 2.22731 18.5625 3.03125V6.0625H12.375C9.09295 6.0625 5.94532 7.33995 3.62455 9.61383C1.30379 11.8877 0 14.9718 0 18.1875L0 24.25H99V18.1875C99 14.9718 97.6962 11.8877 95.3754 9.61383C93.0547 7.33995 89.9071 6.0625 86.625 6.0625H80.4375V3.03125C80.4375 2.22731 80.1116 1.4563 79.5314 0.887833C78.9512 0.319363 78.1643 0 77.3438 0C76.5232 0 75.7363 0.319363 75.1561 0.887833C74.5759 1.4563 74.25 2.22731 74.25 3.03125V6.0625H24.75V3.03125ZM99 84.875V30.3125H0V84.875C0 88.0908 1.30379 91.1748 3.62455 93.4487C5.94532 95.7225 9.09295 97 12.375 97H86.625C89.9071 97 93.0547 95.7225 95.3754 93.4487C97.6962 91.1748 99 88.0908 99 84.875ZM67.1591 53.6774L48.5966 71.8649C48.3092 72.1472 47.9678 72.3711 47.592 72.5239C47.2161 72.6768 46.8132 72.7554 46.4062 72.7554C45.9993 72.7554 45.5964 72.6768 45.2205 72.5239C44.8447 72.3711 44.5033 72.1472 44.2159 71.8649L34.9346 62.7711C34.3537 62.2019 34.0273 61.43 34.0273 60.625C34.0273 59.82 34.3537 59.0481 34.9346 58.4789C35.5155 57.9097 36.3035 57.5899 37.125 57.5899C37.9465 57.5899 38.7345 57.9097 39.3154 58.4789L46.4062 65.4326L62.7784 49.3851C63.3593 48.8159 64.1472 48.4962 64.9688 48.4962C65.7903 48.4962 66.5782 48.8159 67.1591 49.3851C67.7401 49.9543 68.0664 50.7263 68.0664 51.5312C68.0664 52.3362 67.7401 53.1082 67.1591 53.6774Z" fill="#F47703"/>
</svg>
