<svg width="95" height="92" viewBox="0 0 95 92" fill="none" xmlns="http://www.w3.org/2000/svg">
<path d="M47.5 0.166687C21.51 0.166687 0.416687 20.7 0.416687 46C0.416687 71.3 21.51 91.8334 47.5 91.8334C73.49 91.8334 94.5834 71.3 94.5834 46C94.5834 20.7 73.49 0.166687 47.5 0.166687ZM24.2879 74.7834C26.3125 70.6584 38.6484 66.625 47.5 66.625C56.3517 66.625 68.7346 70.6584 70.7121 74.7834C64.3088 79.7334 56.2575 82.6667 47.5 82.6667C38.7425 82.6667 30.6913 79.7334 24.2879 74.7834ZM77.445 68.1375C70.7121 60.1625 54.3742 57.4584 47.5 57.4584C40.6259 57.4584 24.2879 60.1625 17.555 68.1375C12.5531 61.7843 9.83951 54.0045 9.83335 46C9.83335 25.7875 26.7363 9.33335 47.5 9.33335C68.2638 9.33335 85.1667 25.7875 85.1667 46C85.1667 54.3417 82.2475 61.9959 77.445 68.1375ZM47.5 18.5C38.3659 18.5 31.0209 25.65 31.0209 34.5417C31.0209 43.4334 38.3659 50.5834 47.5 50.5834C56.6342 50.5834 63.9792 43.4334 63.9792 34.5417C63.9792 25.65 56.6342 18.5 47.5 18.5ZM47.5 41.4167C43.5921 41.4167 40.4375 38.3459 40.4375 34.5417C40.4375 30.7375 43.5921 27.6667 47.5 27.6667C51.4079 27.6667 54.5625 30.7375 54.5625 34.5417C54.5625 38.3459 51.4079 41.4167 47.5 41.4167Z" fill="#FF7628"/>
</svg>
