<svg width="56" height="41" viewBox="0 0 56 41" fill="none" xmlns="http://www.w3.org/2000/svg">
<path d="M48.3636 0H22.9091C20.8838 0 18.9415 0.64171 17.5094 1.78396C16.0773 2.92621 15.2727 4.47543 15.2727 6.09082V20.3027C15.2727 21.9181 16.0773 23.4673 17.5094 24.6096C18.9415 25.7518 20.8838 26.3936 22.9091 26.3936H48.3636C50.3889 26.3936 52.3313 25.7518 53.7634 24.6096C55.1955 23.4673 56 21.9181 56 20.3027V6.09082C56 4.47543 55.1955 2.92621 53.7634 1.78396C52.3313 0.64171 50.3889 0 48.3636 0ZM50.9091 20.3027C50.9091 20.8412 50.6409 21.3576 50.1635 21.7384C49.6862 22.1191 49.0387 22.333 48.3636 22.333H22.9091C22.234 22.333 21.5865 22.1191 21.1092 21.7384C20.6318 21.3576 20.3636 20.8412 20.3636 20.3027V6.09082C20.3636 5.55236 20.6318 5.03595 21.1092 4.6552C21.5865 4.27445 22.234 4.06055 22.9091 4.06055H48.3636C49.0387 4.06055 49.6862 4.27445 50.1635 4.6552C50.6409 5.03595 50.9091 5.55236 50.9091 6.09082V20.3027ZM42 12.1816C41.0577 12.1842 40.1502 12.4665 39.4545 12.9734C38.9072 12.5766 38.2271 12.3152 37.497 12.2208C36.7668 12.1265 36.018 12.2033 35.3416 12.442C34.6652 12.6807 34.0902 13.071 33.6867 13.5654C33.2831 14.0598 33.0682 14.6371 33.0682 15.227C33.0682 15.817 33.2831 16.3943 33.6867 16.8887C34.0902 17.3831 34.6652 17.7734 35.3416 18.0121C36.018 18.2508 36.7668 18.3276 37.497 18.2333C38.2271 18.1389 38.9072 17.8775 39.4545 17.4807C39.9142 17.8139 40.4689 18.0526 41.0704 18.1762C41.6719 18.2997 42.3022 18.3044 42.9065 18.1897C43.5107 18.075 44.0708 17.8445 44.5381 17.518C45.0054 17.1916 45.3658 16.7792 45.588 16.3166C45.8103 15.8539 45.8876 15.355 45.8134 14.8631C45.7392 14.3713 45.5157 13.9012 45.1622 13.4938C44.8087 13.0865 44.3359 12.754 43.7849 12.5254C43.2338 12.2967 42.6211 12.1787 42 12.1816ZM38.1818 30.4541C37.5067 30.4541 36.8593 30.668 36.3819 31.0488C35.9045 31.4295 35.6364 31.9459 35.6364 32.4844V34.5146C35.6364 35.0531 35.3682 35.5695 34.8908 35.9503C34.4135 36.331 33.766 36.5449 33.0909 36.5449H7.63636C6.96127 36.5449 6.31382 36.331 5.83646 35.9503C5.35909 35.5695 5.09091 35.0531 5.09091 34.5146V26.3936H7.63636C8.31146 26.3936 8.95891 26.1797 9.43627 25.7989C9.91364 25.4181 10.1818 24.9017 10.1818 24.3633C10.1818 23.8248 9.91364 23.3084 9.43627 22.9277C8.95891 22.5469 8.31146 22.333 7.63636 22.333H5.09091V20.3027C5.09091 19.7643 5.35909 19.2479 5.83646 18.8671C6.31382 18.4864 6.96127 18.2725 7.63636 18.2725C8.31146 18.2725 8.95891 18.0586 9.43627 17.6778C9.91364 17.2971 10.1818 16.7806 10.1818 16.2422C10.1818 15.7037 9.91364 15.1873 9.43627 14.8066C8.95891 14.4258 8.31146 14.2119 7.63636 14.2119C5.61107 14.2119 3.66874 14.8536 2.23664 15.9959C0.804543 17.1381 0 18.6873 0 20.3027V34.5146C0 36.13 0.804543 37.6793 2.23664 38.8215C3.66874 39.9638 5.61107 40.6055 7.63636 40.6055H33.0909C35.1162 40.6055 37.0585 39.9638 38.4906 38.8215C39.9227 37.6793 40.7273 36.13 40.7273 34.5146V32.4844C40.7273 31.9459 40.4591 31.4295 39.9817 31.0488C39.5044 30.668 38.8569 30.4541 38.1818 30.4541ZM12.7273 32.4844H15.2727C15.9478 32.4844 16.5953 32.2705 17.0726 31.8897C17.55 31.509 17.8182 30.9926 17.8182 30.4541C17.8182 29.9156 17.55 29.3992 17.0726 29.0185C16.5953 28.6377 15.9478 28.4238 15.2727 28.4238H12.7273C12.0522 28.4238 11.4047 28.6377 10.9274 29.0185C10.45 29.3992 10.1818 29.9156 10.1818 30.4541C10.1818 30.9926 10.45 31.509 10.9274 31.8897C11.4047 32.2705 12.0522 32.4844 12.7273 32.4844Z" fill="black"/>
</svg>
