<svg width="54" height="42" viewBox="0 0 54 42" fill="none" xmlns="http://www.w3.org/2000/svg">
<path d="M0 5.25C0 3.85761 0.711159 2.52226 1.97703 1.53769C3.2429 0.553124 4.95979 0 6.75 0L33.75 0C35.5402 0 37.2571 0.553124 38.523 1.53769C39.7888 2.52226 40.5 3.85761 40.5 5.25V10.5H47.25C49.0402 10.5 50.7571 11.0531 52.023 12.0377C53.2888 13.0223 54 14.3576 54 15.75V36.75C54 38.1424 53.2888 39.4777 52.023 40.4623C50.7571 41.4469 49.0402 42 47.25 42H20.25C18.4598 42 16.7429 41.4469 15.477 40.4623C14.2112 39.4777 13.5 38.1424 13.5 36.75V31.5H6.75C4.95979 31.5 3.2429 30.9469 1.97703 29.9623C0.711159 28.9777 0 27.6424 0 26.25V5.25ZM6.75 2.625C5.85489 2.625 4.99645 2.90156 4.36351 3.39384C3.73058 3.88613 3.375 4.55381 3.375 5.25V26.25C3.375 26.9462 3.73058 27.6139 4.36351 28.1062C4.99645 28.5984 5.85489 28.875 6.75 28.875H33.75C34.6451 28.875 35.5035 28.5984 36.1365 28.1062C36.7694 27.6139 37.125 26.9462 37.125 26.25V5.25C37.125 4.55381 36.7694 3.88613 36.1365 3.39384C35.5035 2.90156 34.6451 2.625 33.75 2.625H6.75Z" fill="black"/>
</svg>
