<svg width="24" height="24" viewBox="0 0 24 24" fill="none" xmlns="http://www.w3.org/2000/svg">
<path fill-rule="evenodd" clip-rule="evenodd" d="M17.4157 14.382C17.1177 14.233 15.6567 13.515 15.3847 13.415C15.1127 13.316 14.9147 13.267 14.7157 13.565C14.5177 13.861 13.9487 14.531 13.7757 14.729C13.6017 14.928 13.4287 14.952 13.1317 14.804C12.8347 14.654 11.8767 14.341 10.7417 13.329C9.85873 12.541 9.26173 11.568 9.08873 11.27C8.91573 10.973 9.06973 10.812 9.21873 10.664C9.35273 10.531 9.51573 10.317 9.66473 10.144C9.81373 9.97004 9.86273 9.84604 9.96173 9.64704C10.0617 9.44904 10.0117 9.27604 9.93673 9.12704C9.86273 8.97804 9.26873 7.51504 9.02073 6.92004C8.77973 6.34104 8.53473 6.42004 8.35273 6.41004C8.17873 6.40204 7.98073 6.40004 7.78273 6.40004C7.58473 6.40004 7.26273 6.47404 6.99073 6.77204C6.71773 7.06904 5.95073 7.78804 5.95073 9.25104C5.95073 10.713 7.01473 12.126 7.16373 12.325C7.31273 12.523 9.25873 15.525 12.2397 16.812C12.9497 17.118 13.5027 17.301 13.9337 17.437C14.6457 17.664 15.2937 17.632 15.8057 17.555C16.3757 17.47 17.5637 16.836 17.8117 16.142C18.0587 15.448 18.0587 14.853 17.9847 14.729C17.9107 14.605 17.7127 14.531 17.4147 14.382H17.4157ZM11.9937 21.785H11.9897C10.2192 21.7854 8.4811 21.3094 6.95773 20.407L6.59773 20.193L2.85573 21.175L3.85473 17.527L3.61973 17.153C2.62987 15.5774 2.10603 13.7538 2.10873 11.893C2.11073 6.44304 6.54473 2.00904 11.9977 2.00904C14.6377 2.00904 17.1197 3.03904 18.9857 4.90704C19.9061 5.82362 20.6356 6.91361 21.132 8.11394C21.6284 9.31427 21.8819 10.6011 21.8777 11.9C21.8757 17.35 17.4417 21.785 11.9937 21.785ZM20.4057 3.48804C19.3039 2.37896 17.993 1.49958 16.5488 0.900841C15.1047 0.302105 13.5561 -0.00407625 11.9927 4.09775e-05C5.43873 4.09775e-05 0.102732 5.33504 0.100732 11.892C0.0997324 13.988 0.646732 16.034 1.68773 17.837L0.000732422 24L6.30473 22.346C8.04861 23.2962 10.0028 23.794 11.9887 23.794H11.9937C18.5477 23.794 23.8837 18.459 23.8857 11.901C23.8906 10.3383 23.5855 8.79014 22.9882 7.34607C22.3908 5.90201 21.5131 4.59071 20.4057 3.48804Z" fill="white"/>
</svg>
