<svg width="24" height="24" viewBox="0 0 24 24" fill="none" xmlns="http://www.w3.org/2000/svg">
<path fill-rule="evenodd" clip-rule="evenodd" d="M16.9058 14.382C16.6165 14.233 15.1982 13.515 14.9342 13.415C14.6701 13.316 14.4779 13.267 14.2847 13.565C14.0925 13.861 13.5402 14.531 13.3722 14.729C13.2033 14.928 13.0354 14.952 12.7471 14.804C12.4587 14.654 11.5287 14.341 10.4269 13.329C9.56975 12.541 8.99021 11.568 8.82227 11.27C8.65433 10.973 8.80382 10.812 8.94847 10.664C9.07855 10.531 9.23678 10.317 9.38143 10.144C9.52607 9.97004 9.57364 9.84604 9.66974 9.64704C9.76682 9.44904 9.71828 9.27604 9.64547 9.12704C9.57364 8.97804 8.99701 7.51504 8.75626 6.92004C8.5223 6.34104 8.28447 6.42004 8.10779 6.41004C7.93888 6.40204 7.74667 6.40004 7.55446 6.40004C7.36225 6.40004 7.04966 6.47404 6.78561 6.77204C6.5206 7.06904 5.77602 7.78804 5.77602 9.25104C5.77602 10.713 6.80891 12.126 6.95356 12.325C7.0982 12.523 8.9873 15.525 11.8811 16.812C12.5704 17.118 13.1072 17.301 13.5256 17.437C14.2168 17.664 14.8458 17.632 15.3429 17.555C15.8962 17.47 17.0495 16.836 17.2902 16.142C17.53 15.448 17.53 14.853 17.4582 14.729C17.3863 14.605 17.1941 14.531 16.9048 14.382H16.9058ZM11.6423 21.785H11.6384C9.91965 21.7854 8.23241 21.3094 6.75358 20.407L6.4041 20.193L2.77152 21.175L3.74131 17.527L3.51318 17.153C2.55226 15.5774 2.04374 13.7538 2.04636 11.893C2.0483 6.44304 6.35265 2.00904 11.6462 2.00904C14.209 2.00904 16.6184 3.03904 18.4299 4.90704C19.3233 5.82362 20.0315 6.91361 20.5134 8.11394C20.9953 9.31427 21.2413 10.6011 21.2373 11.9C21.2354 17.35 16.931 21.785 11.6423 21.785ZM19.8084 3.48804C18.7388 2.37896 17.4661 1.49958 16.0642 0.900841C14.6623 0.302105 13.159 -0.00407625 11.6414 4.09775e-05C5.27899 4.09775e-05 0.0990175 5.33504 0.097076 11.892C0.0941278 13.9788 0.625533 16.0294 1.63767 17.837L0 24L6.11967 22.346C7.81256 23.2962 9.70963 23.794 11.6375 23.794H11.6423C18.0047 23.794 23.1847 18.459 23.1866 11.901C23.1913 10.3383 22.8951 8.79014 22.3153 7.34607C21.7354 5.90201 20.8833 4.59071 19.8084 3.48804Z" fill="#4ECB71"/>
</svg>
