<svg width="26" height="20" viewBox="0 0 26 20" fill="none" xmlns="http://www.w3.org/2000/svg">
<path d="M26.0007 9.91382C26.0007 9.84611 26.0007 9.76916 25.9978 9.6799C25.9949 9.43059 25.9891 9.15051 25.9833 8.85195C25.9601 7.99323 25.9195 7.13758 25.8556 6.33118C25.7686 5.22007 25.6409 4.29363 25.4668 3.59803C25.2831 2.87211 24.9229 2.21006 24.4224 1.67804C23.9218 1.14603 23.2984 0.762684 22.6143 0.566328C21.7931 0.33241 20.1856 0.18775 17.9222 0.0984917C16.8456 0.0554016 15.6936 0.0277006 14.5416 0.0123113C14.1382 0.00615555 13.7639 0.00307787 13.4273 0H12.5742C12.2376 0.00307787 11.8632 0.00615555 11.4599 0.0123113C10.3079 0.0277006 9.15587 0.0554016 8.0793 0.0984917C5.81591 0.190828 4.20542 0.335488 3.38712 0.566328C2.70288 0.762202 2.07919 1.14538 1.57856 1.67747C1.07793 2.20957 0.717938 2.87187 0.534661 3.59803C0.357652 4.29363 0.232875 5.22007 0.145822 6.33118C0.0819824 7.13758 0.0413574 7.99323 0.0181431 8.85195C0.00943773 9.15051 0.00653595 9.43059 0.00363416 9.6799C0.00363416 9.76916 0.000732422 9.84611 0.000732422 9.91382V10.0862C0.000732422 10.1539 0.000732378 10.2308 0.00363416 10.3201C0.00653595 10.5694 0.0123395 10.8495 0.0181431 11.148C0.0413574 12.0068 0.0819824 12.8624 0.145822 13.6688C0.232875 14.7799 0.360554 15.7064 0.534661 16.402C0.90609 17.8763 1.99716 19.0397 3.38712 19.4337C4.20542 19.6676 5.81591 19.8122 8.0793 19.9015C9.15587 19.9446 10.3079 19.9723 11.4599 19.9877C11.8632 19.9938 12.2376 19.9969 12.5742 20H13.4273C13.7639 19.9969 14.1382 19.9938 14.5416 19.9877C15.6936 19.9723 16.8456 19.9446 17.9222 19.9015C20.1856 19.8092 21.796 19.6645 22.6143 19.4337C24.0043 19.0397 25.0954 17.8793 25.4668 16.402C25.6438 15.7064 25.7686 14.7799 25.8556 13.6688C25.9195 12.8624 25.9601 12.0068 25.9833 11.148C25.992 10.8495 25.9949 10.5694 25.9978 10.3201C25.9978 10.2308 26.0007 10.1539 26.0007 10.0862V9.91382ZM23.9114 10.0739C23.9114 10.1385 23.9114 10.2093 23.9085 10.2924C23.9056 10.5325 23.8998 10.7972 23.894 11.0834C23.8737 11.9021 23.8331 12.7208 23.7722 13.4811C23.6938 14.4721 23.5835 15.2847 23.4472 15.8295C23.2673 16.5405 22.7391 17.1037 22.0717 17.2915C21.4623 17.4638 19.9273 17.6023 17.8409 17.6854C16.7847 17.7285 15.6472 17.7562 14.5126 17.7716C14.115 17.7778 13.7465 17.7809 13.4157 17.7809H12.5858L11.4889 17.7716C10.3543 17.7562 9.21971 17.7285 8.16055 17.6854C6.07417 17.5993 4.53622 17.4638 3.92975 17.2915C3.26234 17.1006 2.73421 16.5405 2.5543 15.8295C2.41792 15.2847 2.30765 14.4721 2.2293 13.4811C2.16837 12.7208 2.13064 11.9021 2.10743 11.0834C2.09872 10.7972 2.09582 10.5294 2.09292 10.2924C2.09292 10.2093 2.09002 10.1354 2.09002 10.0739V9.92613C2.09002 9.8615 2.09002 9.7907 2.09292 9.7076C2.09582 9.46753 2.10163 9.20283 2.10743 8.91659C2.12774 8.09787 2.16837 7.27916 2.2293 6.51893C2.30765 5.52785 2.41792 4.7153 2.5543 4.17051C2.73421 3.45953 3.26234 2.89628 3.92975 2.70853C4.53912 2.53616 6.07417 2.39766 8.16055 2.31456C9.2168 2.27147 10.3543 2.24377 11.4889 2.22838C11.8864 2.22222 12.255 2.21914 12.5858 2.21914H13.4157L14.5126 2.22838C15.6472 2.24377 16.7818 2.27147 17.8409 2.31456C19.9273 2.40074 21.4652 2.53616 22.0717 2.70853C22.7391 2.89935 23.2673 3.45953 23.4472 4.17051C23.5835 4.7153 23.6938 5.52785 23.7722 6.51893C23.8331 7.27916 23.8708 8.09787 23.894 8.91659C23.9027 9.20283 23.9056 9.47061 23.9085 9.7076C23.9085 9.7907 23.9114 9.86457 23.9114 9.92613V10.0739ZM10.4181 14.1243L17.1503 9.96922L10.4181 5.87565V14.1243Z" fill="white"/>
</svg>
